<svg width="714" height="699" viewBox="0 0 714 699" fill="none" xmlns="http://www.w3.org/2000/svg">
<path d="M682.113 322.714C674.63 286.884 661.492 251.906 645.87 219.752C618.938 164.279 574.813 118.215 518.364 90.87C379.848 23.766 279.888 51.726 225.624 106.248C171.36 160.77 187.068 254.436 128.52 294.978C69.972 335.52 28.56 353.694 25.704 427.788C22.848 501.882 59.976 557.802 119.952 575.976C179.928 594.15 269.892 652.866 449.82 619.314C629.748 585.762 674.016 492.096 685.44 424.992C691.152 391.23 689.181 356.588 682.113 322.714Z" fill="#FF5733"/>
<path opacity="0.7" d="M682.113 322.714C674.63 286.884 661.492 251.906 645.87 219.752C618.938 164.279 574.813 118.215 518.364 90.87C379.848 23.766 279.888 51.726 225.624 106.248C171.36 160.77 187.068 254.436 128.52 294.978C69.972 335.52 28.56 353.694 25.704 427.788C22.848 501.882 59.976 557.802 119.952 575.976C179.928 594.15 269.892 652.866 449.82 619.314C629.748 585.762 674.016 492.096 685.44 424.992C691.152 391.23 689.181 356.588 682.113 322.714Z" fill="white"/>
<path d="M260.353 118.159H247.415V174.289H260.353V118.159Z" fill="#C9C9C9" stroke="#263238" stroke-linecap="round" stroke-linejoin="round"/>
<path d="M260.353 126.603H247.415V132.083H260.353V126.603Z" fill="white" stroke="#263238" stroke-linecap="round" stroke-linejoin="round"/>
<path d="M260.353 161.427H247.415V166.907H260.353V161.427Z" fill="white" stroke="#263238" stroke-linecap="round" stroke-linejoin="round"/>
<path d="M275.447 118.159H257.34V174.289H275.447V118.159Z" fill="#878787" stroke="#263238" stroke-linecap="round" stroke-linejoin="round"/>
<path d="M274.162 118.159H261.224V174.289H274.162V118.159Z" fill="#C9C9C9" stroke="#263238" stroke-linecap="round" stroke-linejoin="round"/>
<path d="M274.162 126.603H261.224V132.083H274.162V126.603Z" fill="white" stroke="#263238" stroke-linecap="round" stroke-linejoin="round"/>
<path d="M274.162 161.427H261.224V166.907H274.162V161.427Z" fill="white" stroke="#263238" stroke-linecap="round" stroke-linejoin="round"/>
<path d="M289.241 118.159H271.134V174.289H289.241V118.159Z" fill="#878787" stroke="#263238" stroke-linecap="round" stroke-linejoin="round"/>
<path d="M287.956 118.159H275.019V174.289H287.956V118.159Z" fill="#C9C9C9" stroke="#263238" stroke-linecap="round" stroke-linejoin="round"/>
<path d="M287.956 126.603H275.019V132.083H287.956V126.603Z" fill="white" stroke="#263238" stroke-linecap="round" stroke-linejoin="round"/>
<path d="M287.956 161.427H275.019V166.907H287.956V161.427Z" fill="white" stroke="#263238" stroke-linecap="round" stroke-linejoin="round"/>
<path d="M303.036 118.159H284.929V174.289H303.036V118.159Z" fill="#C9C9C9" stroke="#263238" stroke-linecap="round" stroke-linejoin="round"/>
<path d="M314.831 174.862H345.219L353.301 167.704H314.831V174.862Z" fill="white" stroke="#263238" stroke-linecap="round" stroke-linejoin="round"/>
<path d="M349.86 175.225L348.889 173.59L314.203 173.52L315.202 175.225H349.86Z" fill="white" stroke="#263238" stroke-linecap="round" stroke-linejoin="round"/>
<path d="M297.238 119.328L286.038 125.668L314.74 174.258L325.94 167.918L297.238 119.328Z" fill="#C9C9C9" stroke="#263238" stroke-linecap="round" stroke-linejoin="round"/>
<path d="M301.559 126.618L290.359 132.958L293.162 137.702L304.361 131.362L301.559 126.618Z" fill="white" stroke="#263238" stroke-linecap="round" stroke-linejoin="round"/>
<path d="M319.378 156.761L308.178 163.101L310.98 167.845L322.18 161.505L319.378 156.761Z" fill="white" stroke="#263238" stroke-linecap="round" stroke-linejoin="round"/>
<path d="M353.102 168.193L325.641 168.123L296.938 119.529L324.399 119.599L353.102 168.193Z" fill="#C9C9C9" stroke="#263238" stroke-linecap="round" stroke-linejoin="round"/>
<path d="M368.067 146.441C368.067 146.441 363.069 144.693 361.641 137.004C360.213 129.315 357.714 118.481 360.57 116.034C363.426 113.588 368.781 112.19 369.495 117.083C370.209 121.976 369.138 131.412 370.209 133.509C371.28 135.606 374.85 134.208 374.85 130.014C374.85 123.108 371.994 116.034 373.008 109.044C374.436 99.3838 384.432 98.3214 385.503 109.044C386.103 114.972 386.274 121.025 386.274 126.98C386.274 129.427 390.558 130.825 390.201 124.883C389.944 120.689 393.057 115.796 397.341 117.194C401.625 118.592 398.055 137.116 396.627 140.261C395.199 143.407 386.274 143.994 386.274 143.994V152.033L375.564 152.382L375.207 144.344C373.026 145.578 370.581 146.296 368.067 146.441Z" fill="#FF5733" stroke="#263238" stroke-linecap="round" stroke-linejoin="round"/>
<path d="M377.706 131.118C377.834 132.866 377.92 133.914 377.92 133.914" stroke="#263238" stroke-linecap="round" stroke-linejoin="round"/>
<path d="M378.42 104.011C378.42 104.011 376.078 105.605 376.249 110.386C376.364 113.294 376.935 121.346 377.378 127.232" stroke="#263238" stroke-linecap="round" stroke-linejoin="round"/>
<path d="M382.447 120.494L382.818 132.195" stroke="#263238" stroke-linecap="round" stroke-linejoin="round"/>
<path d="M387.673 139.8C386.846 139.926 386.011 139.996 385.174 140.01" stroke="#263238" stroke-linecap="round" stroke-linejoin="round"/>
<path d="M395.128 120.144C394.303 121.674 393.867 123.377 393.857 125.107C393.857 127.903 394.042 135.746 392.229 137.871C391.786 138.348 391.246 138.729 390.644 138.989" stroke="#263238" stroke-linecap="round" stroke-linejoin="round"/>
<path d="M364.14 135.872C364.569 137.974 365.599 139.913 367.11 141.464C368.004 142.164 369.107 142.559 370.252 142.59C371.396 142.62 372.519 142.283 373.451 141.631" stroke="#263238" stroke-linecap="round" stroke-linejoin="round"/>
<path d="M363.797 116.957C363.797 116.957 360.184 116.957 361.441 123.15C361.984 125.764 362.484 128.979 363.126 132.013" stroke="#263238" stroke-linecap="round" stroke-linejoin="round"/>
<path d="M377.378 140.527L378.106 148.146" stroke="#263238" stroke-linecap="round" stroke-linejoin="round"/>
<path d="M395.913 148.887L394.614 159.316L393.728 166.418L392.7 174.68H367.01L365.982 166.418L365.097 159.316L363.797 148.887H395.913Z" fill="white" stroke="#263238" stroke-linecap="round" stroke-linejoin="round"/>
<path d="M394.614 159.316L393.728 166.418H365.982L365.097 159.316H394.614Z" fill="#FF5733" stroke="#263238" stroke-linecap="round" stroke-linejoin="round"/>
<path d="M410.022 174.68H245.13V185.375H410.022V174.68Z" fill="white" stroke="#263238" stroke-linecap="round" stroke-linejoin="round"/>
<path d="M410.022 174.68H372.008V185.375H410.022V174.68Z" fill="white" stroke="#263238" stroke-linecap="round" stroke-linejoin="round"/>
<path d="M368.31 185.417C385.974 191.792 382.79 203.842 382.79 203.842H399.512V185.417H368.31Z" fill="#919191" stroke="#263238" stroke-linecap="round" stroke-linejoin="round"/>
<path d="M373.95 185.417C391.6 191.792 388.416 203.842 388.416 203.842H405.152V185.417H373.95Z" fill="white" stroke="#263238" stroke-linecap="round" stroke-linejoin="round"/>
<path d="M255.141 185.417C272.805 191.792 269.621 203.842 269.621 203.842H286.343V185.417H255.141Z" fill="#919191" stroke="#263238" stroke-linecap="round" stroke-linejoin="round"/>
<path d="M260.781 185.417C278.431 191.792 275.247 203.842 275.247 203.842H291.983V185.417H260.781Z" fill="white" stroke="#263238" stroke-linecap="round" stroke-linejoin="round"/>
<path d="M639.801 120.158H491.917V321.135H639.801V120.158Z" fill="#919191" stroke="#263238" stroke-linecap="round" stroke-linejoin="round"/>
<path d="M633.389 128.882H498.344V312.411H633.389V128.882Z" fill="#FF5733"/>
<path opacity="0.5" d="M633.389 128.882H498.344V312.411H633.389V128.882Z" fill="white"/>
<path d="M528.032 298.473C524.411 303.88 519.837 308.614 514.523 312.453H633.389V128.882H611.484L608.628 129.762C587.208 136.375 565.074 155.514 552.522 190.296" stroke="#263238" stroke-linecap="round" stroke-linejoin="round"/>
<path d="M550.437 196.391C545.45 212.979 542.694 230.132 542.24 247.418C541.455 268.164 536.942 283.081 530.916 293.804" stroke="#263238" stroke-linecap="round" stroke-linejoin="round"/>
<path d="M620.18 175.463C600.545 186.647 577.683 205.436 569.144 234.249C564.56 249.627 568.858 263.495 577.355 275.364" stroke="#263238" stroke-linecap="round" stroke-linejoin="round"/>
<path d="M581.953 281.152C593.734 294.656 610.513 305.281 624.093 312.425H633.389V168.683C630.733 169.899 627.906 171.269 624.964 172.877" stroke="#263238" stroke-linecap="round" stroke-linejoin="round"/>
<path d="M520.792 176.735C531.13 156.101 532.216 139.73 531.03 128.882H498.372V212.845C503.199 206.121 509.111 197.132 516.251 185.081C516.693 184.34 517.107 183.683 517.522 182.9" stroke="#263238" stroke-linecap="round" stroke-linejoin="round"/>
<path d="M533.586 256.211C532.001 266.375 527.232 273.756 521.606 273.756C514.68 273.756 509.053 262.572 509.053 248.732C509.053 234.892 514.68 223.708 521.606 223.708C528.531 223.708 534.158 234.892 534.158 248.732" stroke="#263238" stroke-linecap="round" stroke-linejoin="round"/>
<path d="M539.541 197.37C539.541 202.696 537.142 207.03 534.158 207.03C531.173 207.03 528.788 202.696 528.788 197.37C528.788 192.043 531.188 187.709 534.158 187.709C537.128 187.709 539.541 192.029 539.541 197.37Z" stroke="#263238" stroke-linecap="round" stroke-linejoin="round"/>
<path d="M608.057 238.177C613.24 240.596 616.625 244.818 616.625 249.613C616.625 257.12 608.2 263.215 597.789 263.215C587.379 263.215 578.968 257.12 578.968 249.613C578.968 242.106 587.394 235.996 597.789 235.996C599.448 235.995 601.103 236.154 602.73 236.472" stroke="#263238" stroke-linecap="round" stroke-linejoin="round"/>
<path d="M605.729 249.613C605.729 252.758 602.202 255.317 597.832 255.317C593.463 255.317 589.935 252.758 589.935 249.613C589.935 246.467 593.477 243.895 597.832 243.895C602.188 243.895 605.729 246.453 605.729 249.613Z" stroke="#263238" stroke-linecap="round" stroke-linejoin="round"/>
<path d="M618.467 214.928C618.467 219.29 614.054 222.827 608.599 222.827C603.144 222.827 598.732 219.29 598.732 214.928C598.732 210.567 603.144 207.03 608.599 207.03C614.054 207.03 618.467 210.567 618.467 214.928Z" stroke="#263238" stroke-linecap="round" stroke-linejoin="round"/>
<path d="M547.167 171.031C550.881 171.031 553.893 163.758 553.893 154.787C553.893 145.815 550.881 138.542 547.167 138.542C543.452 138.542 540.441 145.815 540.441 154.787C540.441 163.758 543.452 171.031 547.167 171.031Z" stroke="#263238" stroke-linecap="round" stroke-linejoin="round"/>
<path d="M565.559 294.391C565.559 296.216 565.007 298 563.971 299.517C562.936 301.034 561.464 302.217 559.741 302.915C558.019 303.614 556.124 303.796 554.296 303.44C552.468 303.084 550.788 302.206 549.47 300.915C548.152 299.625 547.255 297.981 546.891 296.191C546.527 294.401 546.714 292.546 547.427 290.86C548.141 289.174 549.349 287.733 550.899 286.719C552.448 285.705 554.271 285.164 556.135 285.164C558.634 285.164 561.032 286.136 562.799 287.866C564.567 289.597 565.559 291.944 565.559 294.391Z" stroke="#263238" stroke-linecap="round" stroke-linejoin="round"/>
<path d="M609.499 157.415C609.502 158.547 609.161 159.654 608.521 160.597C607.88 161.539 606.968 162.274 605.9 162.709C604.832 163.143 603.657 163.258 602.523 163.037C601.388 162.817 600.346 162.272 599.529 161.472C598.711 160.671 598.154 159.651 597.93 158.541C597.705 157.43 597.821 156.28 598.265 155.234C598.709 154.189 599.46 153.296 600.423 152.669C601.385 152.042 602.516 151.708 603.673 151.711C605.217 151.715 606.697 152.317 607.788 153.386C608.88 154.454 609.495 155.903 609.499 157.415Z" stroke="#263238" stroke-linecap="round" stroke-linejoin="round"/>
<path d="M572.728 197.803C572.731 198.412 572.549 199.008 572.205 199.516C571.862 200.023 571.372 200.42 570.799 200.654C570.225 200.889 569.593 200.952 568.982 200.835C568.372 200.718 567.811 200.426 567.37 199.997C566.929 199.567 566.629 199.019 566.506 198.422C566.384 197.825 566.445 197.206 566.683 196.643C566.92 196.08 567.323 195.599 567.84 195.261C568.356 194.922 568.964 194.741 569.586 194.741C569.998 194.74 570.406 194.817 570.788 194.97C571.169 195.123 571.515 195.349 571.807 195.633C572.099 195.918 572.331 196.256 572.489 196.628C572.647 197.001 572.728 197.4 572.728 197.803Z" stroke="#263238" stroke-linecap="round" stroke-linejoin="round"/>
<path d="M633.389 128.882H498.344V312.411H633.389V128.882Z" stroke="#263238" stroke-linecap="round" stroke-linejoin="round"/>
<path d="M412.678 390.587H375.992V404.106H412.678V390.587Z" fill="#263238" stroke="#263238" stroke-linecap="round" stroke-linejoin="round"/>
<path d="M461.901 392.628H315.888L322.799 281.823H468.827L461.901 392.628Z" fill="#919191" stroke="#263238" stroke-linecap="round" stroke-linejoin="round"/>
<path d="M457.717 392.628H311.704L318.615 281.823H464.628L457.717 392.628Z" fill="#263238" stroke="#263238" stroke-linecap="round" stroke-linejoin="round"/>
<path d="M449.991 386.463H320.2L326.341 287.974H456.132L449.991 386.463Z" fill="white" stroke="#263238" stroke-linecap="round" stroke-linejoin="round"/>
<path d="M412.235 371.784H324.07L328.797 295.887H416.976L412.235 371.784Z" fill="#919191" stroke="#263238" stroke-linecap="round" stroke-linejoin="round"/>
<path d="M358.856 339.183C358.856 339.183 340.492 346.299 340.378 348.214C340.264 350.129 336.665 371.784 336.665 371.784H391.272L386.674 346.844L366.468 338.624L358.856 339.183Z" fill="white" stroke="#263238" stroke-linecap="round" stroke-linejoin="round"/>
<path d="M359.399 334.793C358.017 335.15 356.734 335.804 355.643 336.708C354.215 338.106 352.473 342.734 352.473 342.734L352.402 348.214L359.642 344.383L366.996 343.908L373.879 350.213L374.764 340.623C374.764 340.623 373.708 335.143 371.48 334.863C369.252 334.583 359.399 334.793 359.399 334.793Z" fill="white" stroke="#263238" stroke-linecap="round" stroke-linejoin="round"/>
<path d="M359.171 329.592L358.856 339.183L363.183 346.033L370.337 338.903L371.451 330.138L359.171 329.592Z" fill="white" stroke="#263238" stroke-linecap="round" stroke-linejoin="round"/>
<path d="M376.821 318.381C376.307 326.419 370.852 336.163 364.868 336.163C358.885 336.163 354.644 326.377 355.144 318.381C355.643 310.384 360.856 303.827 366.882 303.827C372.908 303.827 377.32 310.356 376.821 318.381Z" fill="white" stroke="#263238" stroke-linecap="round" stroke-linejoin="round"/>
<path d="M355.044 319.443C355.044 319.443 353.116 314.522 352.316 318.353C351.516 322.183 355.458 326.293 355.458 326.293L355.044 319.443Z" fill="white" stroke="#263238" stroke-linecap="round" stroke-linejoin="round"/>
<path d="M376.821 318.381C376.821 318.381 381.547 316.437 380.162 320.547C379.811 321.71 379.197 322.781 378.367 323.681C377.536 324.581 376.51 325.288 375.364 325.748L376.821 318.381Z" fill="white" stroke="#263238" stroke-linecap="round" stroke-linejoin="round"/>
<path d="M364.283 319.443C364.321 318.949 364.253 318.454 364.084 317.987C363.915 317.521 363.649 317.093 363.303 316.733C362.956 316.373 362.537 316.087 362.071 315.894C361.606 315.701 361.104 315.605 360.599 315.612C359.546 315.64 358.541 316.045 357.774 316.752C357.008 317.458 356.534 318.416 356.443 319.443C356.405 319.937 356.473 320.434 356.642 320.901C356.81 321.368 357.076 321.796 357.423 322.158C357.769 322.519 358.188 322.806 358.654 323C359.119 323.195 359.621 323.293 360.127 323.287C361.182 323.26 362.189 322.853 362.956 322.143C363.723 321.434 364.195 320.472 364.283 319.443Z" fill="white" stroke="#263238" stroke-linecap="round" stroke-linejoin="round"/>
<path d="M373.793 319.443L378.063 318.353" stroke="#263238" stroke-linecap="round" stroke-linejoin="round"/>
<path d="M373.793 319.443C373.831 318.951 373.764 318.456 373.596 317.99C373.428 317.525 373.163 317.098 372.818 316.738C372.473 316.378 372.055 316.092 371.591 315.898C371.128 315.705 370.628 315.607 370.123 315.612C369.068 315.636 368.06 316.04 367.29 316.747C366.521 317.454 366.045 318.414 365.954 319.443C365.916 319.937 365.984 320.434 366.152 320.901C366.321 321.368 366.587 321.796 366.933 322.158C367.279 322.519 367.699 322.806 368.164 323.001C368.63 323.195 369.132 323.293 369.638 323.288C370.692 323.26 371.7 322.853 372.466 322.143C373.233 321.434 373.706 320.472 373.793 319.443Z" fill="white" stroke="#263238" stroke-linecap="round" stroke-linejoin="round"/>
<path d="M365.911 302.178C365.911 302.178 361.627 299.997 358.414 301.367C355.201 302.737 352.83 310.132 352.987 312.048C353.491 314.558 354.178 317.029 355.044 319.443L358.442 309.853L367.353 306.022L365.911 302.178Z" fill="#263238" stroke="#263238" stroke-linecap="round" stroke-linejoin="round"/>
<path d="M361.598 304.107C361.598 304.107 368.653 298.627 374.365 301.311C376.113 302.055 377.558 303.348 378.471 304.986C379.384 306.625 379.713 308.514 379.405 310.356C379.32 311.754 379.205 318.017 379.205 318.017L375.807 318.576L374.136 313.418C372.205 312.67 370.326 311.802 368.51 310.817C368.51 310.817 360.956 309.853 361.598 304.107Z" fill="#263238" stroke="#263238" stroke-linecap="round" stroke-linejoin="round"/>
<path d="M364.283 319.443L363.783 327.398H365.739" fill="white"/>
<path d="M364.283 319.443L363.783 327.398H365.739" stroke="#263238" stroke-linecap="round" stroke-linejoin="round"/>
<path d="M362.755 330.403H366.953" stroke="#263238" stroke-linecap="round" stroke-linejoin="round"/>
<path d="M363.183 346.033L361.627 370.959" stroke="#263238" stroke-linecap="round" stroke-linejoin="round"/>
<path d="M386.645 346.844C386.645 346.844 380.805 359.733 380.633 362.473C380.462 365.214 379.805 371.239 379.805 371.239" stroke="#263238" stroke-linecap="round" stroke-linejoin="round"/>
<path d="M340.378 348.214C340.378 348.214 346.19 358.084 346.947 359.398C347.704 360.712 346.775 371.183 346.775 371.183" stroke="#263238" stroke-linecap="round" stroke-linejoin="round"/>
<path d="M390.544 356.168L392.472 347.669L395.756 344.383L398.855 339.448H400.254L398.541 344.663L402.882 342.188L405.681 337.813L407.308 338.624L403.31 348.773L396.97 351.779L395.87 355.889L390.544 356.168Z" fill="white" stroke="#263238" stroke-linecap="round" stroke-linejoin="round"/>
<path d="M395.97 371.784L396.498 354.798L390.13 353.694L385.103 371.784H395.97Z" fill="white" stroke="#263238" stroke-linecap="round" stroke-linejoin="round"/>
<path d="M411.849 378.089H323.67L324.07 371.784H412.235L411.849 378.089Z" fill="white" stroke="#263238" stroke-linecap="round" stroke-linejoin="round"/>
<path d="M327.269 374.259H408.165" stroke="#263238" stroke-linecap="round" stroke-linejoin="round"/>
<path d="M450.134 316.144H420.46L421.717 296.138H451.391L450.134 316.144Z" fill="#FF5733" stroke="#263238" stroke-linecap="round" stroke-linejoin="round"/>
<path d="M450.134 316.144H420.46L420.675 312.858H450.348L450.134 316.144Z" fill="white" stroke="#263238" stroke-linecap="round" stroke-linejoin="round"/>
<path d="M440.552 304.974L432.841 300.458L432.284 309.489L440.552 304.974Z" fill="white" stroke="#263238" stroke-linecap="round" stroke-linejoin="round"/>
<path d="M448.206 347.109H418.532L419.775 327.118H449.449L448.206 347.109Z" fill="#FF5733" stroke="#263238" stroke-linecap="round" stroke-linejoin="round"/>
<path d="M448.206 347.109H418.532L418.747 343.824H448.406L448.206 347.109Z" fill="white" stroke="#263238" stroke-linecap="round" stroke-linejoin="round"/>
<path d="M438.624 335.953L430.913 331.438L430.356 340.469L438.624 335.953Z" fill="white" stroke="#263238" stroke-linecap="round" stroke-linejoin="round"/>
<path d="M446.264 378.089H416.605L417.847 358.084H447.521L446.264 378.089Z" fill="#FF5733" stroke="#263238" stroke-linecap="round" stroke-linejoin="round"/>
<path d="M446.264 378.089H416.605L416.805 374.804H446.479L446.264 378.089Z" fill="white" stroke="#263238" stroke-linecap="round" stroke-linejoin="round"/>
<path d="M436.682 366.919L428.985 362.404L428.414 371.435L436.682 366.919Z" fill="white" stroke="#263238" stroke-linecap="round" stroke-linejoin="round"/>
<path d="M420.546 319.443H449.363" stroke="#263238" stroke-linecap="round" stroke-linejoin="round"/>
<path d="M420.332 322.742H449.163" stroke="#263238" stroke-linecap="round" stroke-linejoin="round"/>
<path d="M418.59 350.688H447.421" stroke="#263238" stroke-linecap="round" stroke-linejoin="round"/>
<path d="M418.39 353.974H447.221" stroke="#263238" stroke-linecap="round" stroke-linejoin="round"/>
<path d="M405.809 404.106H384.132C384.132 401.989 384.991 399.958 386.52 398.461C388.049 396.964 390.123 396.123 392.286 396.123H397.627C399.789 396.123 401.863 396.964 403.392 398.461C404.921 399.958 405.78 401.989 405.78 404.106H405.809Z" fill="white" stroke="#263238" stroke-linecap="round" stroke-linejoin="round"/>
<path d="M373.808 399.758H267.821V404.106H373.808V399.758Z" fill="#919191" stroke="#263238" stroke-linecap="round" stroke-linejoin="round"/>
<path d="M373.779 399.758H347.147V404.106H373.779V399.758Z" fill="white" stroke="#263238" stroke-linecap="round" stroke-linejoin="round"/>
<path d="M224.382 191.009V108.401" stroke="#263238" stroke-linecap="round" stroke-linejoin="round"/>
<path d="M224.382 604.439V199.229" stroke="#263238" stroke-linecap="round" stroke-linejoin="round"/>
<path d="M417.076 433.1L429.928 602.72C429.995 603.339 430.3 603.91 430.782 604.316C431.263 604.722 431.885 604.934 432.52 604.907C433.156 604.88 433.757 604.618 434.201 604.172C434.645 603.727 434.899 603.132 434.912 602.51L432.984 433.1H417.076Z" fill="#919191" stroke="#263238" stroke-linecap="round" stroke-linejoin="round"/>
<path d="M426.772 433.1L433.555 604.677C433.955 604.468 434.289 604.155 434.521 603.773C434.753 603.391 434.873 602.954 434.869 602.51L432.984 433.1H426.772Z" fill="white" stroke="#263238" stroke-linecap="round" stroke-linejoin="round"/>
<path d="M497.858 433.1L510.71 602.72C510.777 603.339 511.082 603.91 511.564 604.316C512.045 604.722 512.667 604.934 513.302 604.907C513.938 604.88 514.539 604.618 514.983 604.172C515.427 603.727 515.681 603.132 515.694 602.51L513.766 433.1H497.858Z" fill="#919191" stroke="#263238" stroke-linecap="round" stroke-linejoin="round"/>
<path d="M506.797 433.1L514.708 604.425C515.005 604.198 515.244 603.907 515.408 603.575C515.571 603.243 515.654 602.879 515.651 602.51L513.766 433.1H506.797Z" fill="white" stroke="#263238" stroke-linecap="round" stroke-linejoin="round"/>
<path d="M284.915 434.946L272.063 602.706C272.019 603.321 271.738 603.898 271.277 604.318C270.816 604.739 270.208 604.972 269.578 604.97C269.247 604.976 268.919 604.917 268.612 604.798C268.304 604.678 268.025 604.5 267.788 604.274C267.552 604.048 267.363 603.778 267.234 603.48C267.105 603.182 267.038 602.862 267.036 602.538L268.935 434.498L284.915 434.946Z" fill="#263238" stroke="#263238" stroke-linecap="round" stroke-linejoin="round"/>
<path d="M204.204 434.946L191.352 602.706C191.309 603.321 191.028 603.898 190.566 604.318C190.105 604.739 189.498 604.972 188.867 604.97C188.538 604.969 188.212 604.903 187.909 604.778C187.605 604.652 187.33 604.469 187.099 604.239C186.868 604.009 186.686 603.737 186.563 603.438C186.44 603.138 186.379 602.818 186.383 602.496L188.282 434.456L204.204 434.946Z" fill="#263238" stroke="#263238" stroke-linecap="round" stroke-linejoin="round"/>
<path d="M518.493 408.048H183.441V434.47H518.493V408.048Z" fill="#919191" stroke="#263238" stroke-linecap="round" stroke-linejoin="round"/>
<path d="M518.493 408.048H422.474V434.47H518.493V408.048Z" fill="white" stroke="#263238" stroke-linecap="round" stroke-linejoin="round"/>
<path d="M518.493 412.242H183.441V419.526H518.493V412.242Z" fill="#263238" stroke="#263238" stroke-linecap="round" stroke-linejoin="round"/>
<path d="M523.319 404.26H178.614V413.095H523.319V404.26Z" fill="#919191" stroke="#263238" stroke-linecap="round" stroke-linejoin="round"/>
<path d="M523.305 404.26H428.643V413.095H523.305V404.26Z" fill="white" stroke="#263238" stroke-linecap="round" stroke-linejoin="round"/>
<path d="M421.674 240.456H375.15C372.726 240.456 370.401 241.399 368.687 243.077C366.974 244.754 366.011 247.03 366.011 249.403V266.179C366.009 267.355 366.244 268.519 366.703 269.605C367.161 270.692 367.834 271.679 368.683 272.51C369.532 273.341 370.541 274 371.65 274.449C372.76 274.898 373.949 275.128 375.15 275.126H399.512L390.387 300.081L407.865 275.126H421.674C422.875 275.128 424.064 274.898 425.174 274.449C426.283 274 427.292 273.341 428.141 272.51C428.99 271.679 429.663 270.692 430.121 269.605C430.58 268.519 430.815 267.355 430.813 266.179V249.403C430.813 247.03 429.85 244.754 428.137 243.077C426.423 241.399 424.098 240.456 421.674 240.456Z" fill="white" stroke="#263238" stroke-linecap="round" stroke-linejoin="round"/>
<path d="M385.946 261.608C387.783 261.608 389.273 260.149 389.273 258.35C389.273 256.551 387.783 255.093 385.946 255.093C384.108 255.093 382.618 256.551 382.618 258.35C382.618 260.149 384.108 261.608 385.946 261.608Z" fill="#263238"/>
<path d="M398.412 261.608C400.25 261.608 401.739 260.149 401.739 258.35C401.739 256.551 400.25 255.093 398.412 255.093C396.574 255.093 395.085 256.551 395.085 258.35C395.085 260.149 396.574 261.608 398.412 261.608Z" fill="#263238"/>
<path d="M414.191 258.35C414.191 257.706 413.996 257.075 413.63 256.539C413.263 256.003 412.743 255.586 412.134 255.34C411.525 255.094 410.856 255.03 410.21 255.157C409.564 255.284 408.971 255.595 408.506 256.052C408.042 256.509 407.726 257.091 407.599 257.724C407.472 258.356 407.54 259.012 407.794 259.607C408.048 260.202 408.477 260.709 409.026 261.066C409.575 261.422 410.22 261.611 410.879 261.608C411.315 261.608 411.747 261.523 412.15 261.36C412.553 261.196 412.918 260.956 413.226 260.653C413.534 260.35 413.778 259.991 413.943 259.596C414.109 259.201 414.193 258.778 414.191 258.35Z" fill="#263238"/>
<path d="M642.6 605.334H681.156" stroke="#263238" stroke-linecap="round" stroke-linejoin="round"/>
<path d="M34.272 605.334H622.608" stroke="#263238" stroke-linecap="round" stroke-linejoin="round"/>
<path d="M260.81 358.279C256.626 351.289 244.316 324.378 244.316 324.378C244.688 321.503 245.289 318.661 246.116 315.878C247.13 313.082 249.686 304.61 249.172 302.849C248.658 301.087 241.246 297.844 240.489 297.592C239.733 297.341 241.503 293.091 238.69 292.084C235.877 291.078 234.863 292.587 234.863 292.587L233.792 299.577L230.508 304.61C229.14 303.592 227.709 302.659 226.224 301.814C223.925 300.556 218.555 300.053 218.298 302.066C218.041 304.079 222.582 305.812 224.167 307.071C225.752 308.329 227.752 314.326 229.551 316.088C231.186 317.835 232.721 319.669 234.149 321.582L235.177 324.839C235.177 324.839 238.676 357.818 239.09 366.024C239.504 374.231 240.761 395.942 243.274 399.213C245.787 402.484 246.216 404.553 253.27 402.093C260.324 399.632 261.638 396.347 263.266 388.966C264.894 381.584 264.994 365.241 260.81 358.279Z" fill="white" stroke="#263238" stroke-linecap="round" stroke-linejoin="round"/>
<path d="M263.323 389.008C264.994 381.64 264.994 365.242 260.81 358.252C260.353 357.483 259.796 356.49 259.168 355.316C249.7 352.618 240.704 357.021 240.704 357.021L238.419 358C238.719 361.425 238.947 364.291 239.033 366.038C239.461 374.231 240.704 395.956 243.217 399.227C245.73 402.498 246.159 404.567 253.213 402.107C260.267 399.646 261.638 396.389 263.323 389.008Z" fill="#FF5733" stroke="#263238" stroke-linecap="round" stroke-linejoin="round"/>
<path d="M230.279 247.446C231.31 251.154 231.886 254.97 231.993 258.812C231.993 264.278 230.279 267.647 232.864 269.325C235.449 271.002 237.591 271.016 237.148 274.385C236.979 276.245 236.225 278.008 234.992 279.432C234.992 279.432 234.135 296.684 233.278 298.375C232.421 300.067 221.24 297.956 218.655 297.522C216.071 297.089 208.774 300.472 204.033 291.217C199.292 281.963 203.176 268.067 211.772 260.909C217.685 256.093 223.864 251.599 230.279 247.446Z" fill="white" stroke="#263238" stroke-linecap="round" stroke-linejoin="round"/>
<path d="M231.993 258.742C231.993 258.742 229.665 257.036 228.437 260.028" stroke="#263238" stroke-linecap="round" stroke-linejoin="round"/>
<path d="M229.908 265.704C229.574 267.399 229.682 269.149 230.222 270.793" stroke="#263238" stroke-linecap="round" stroke-linejoin="round"/>
<path d="M234.192 285.472C233.81 285.592 233.407 285.631 233.009 285.589C232.61 285.546 232.226 285.422 231.879 285.224C231.533 285.026 231.234 284.759 231 284.441C230.766 284.122 230.603 283.759 230.522 283.375" stroke="#263238" stroke-linecap="round" stroke-linejoin="round"/>
<path d="M239.061 364.598C239.061 364.598 237.633 371.001 236.363 374.384C235.092 377.768 212.301 383.975 202.376 385.261C195.838 386.06 189.258 386.485 182.67 386.533L183.298 404.232C183.298 404.232 202.519 404.609 203.876 404.232C205.232 403.854 237.591 389.692 237.591 389.692L251.556 387.903C251.556 387.903 257.426 386.505 257.654 382.045C257.882 377.586 252.699 364.906 250.343 362.935C247.986 360.964 243.017 355.735 240.032 358.95C237.048 362.166 239.061 364.598 239.061 364.598Z" fill="white" stroke="#263238" stroke-linecap="round" stroke-linejoin="round"/>
<path d="M196.207 396.375C196.207 388.728 198.206 388.532 200.491 385.498C194.587 386.144 188.653 386.489 182.713 386.533L182.241 402.778C182.241 402.778 192.766 403.728 199.177 404.176C198.649 404.973 196.207 401.296 196.207 396.375Z" fill="#FF5733" stroke="#263238" stroke-linecap="round" stroke-linejoin="round"/>
<path d="M258.268 430.766C250.665 422.401 240.999 416.081 230.194 412.41L205.118 422.881C203.171 418.2 200.586 413.799 197.435 409.796L192.751 404.204L195.765 388.169C195.765 388.169 213.814 376.062 216.142 370.819L216.228 370.652C219.855 376.146 235.591 399.926 238.547 402.233C241.889 404.861 251.913 405.182 256.255 401.254C260.596 397.326 262.609 394.711 261.61 388.826C261.61 388.826 254.927 374.748 251.242 368.527C247.558 362.306 239.547 340.063 235.534 333.185C232.678 328.264 231.493 324.797 229.465 322.477C228.058 320.103 226.397 317.881 224.51 315.85C220.497 311.656 209.459 310.608 207.117 309.629C204.775 308.65 204.447 308.315 191.081 304.401C177.715 300.486 162.663 298.179 151.968 306.358C151.968 306.358 137.602 323.05 131.976 350.535C126.349 378.019 125.95 405.839 125.293 410.746C124.636 415.653 118.938 439.545 117.267 453.288C115.597 467.03 130.248 480.828 139.273 485.106C148.298 489.384 187.068 490.013 209.802 485.106C232.536 480.199 268.635 457.943 268.635 457.943C268.635 457.943 269.963 444.187 258.268 430.766Z" fill="#FF5733" stroke="#263238" stroke-linecap="round" stroke-linejoin="round"/>
<path d="M199.163 370.302L194.579 370.148" stroke="#263238" stroke-linecap="round" stroke-linejoin="round"/>
<path d="M197.435 363.158C203.856 365.276 210.109 367.856 216.142 370.875L204.375 370.484" stroke="#263238" stroke-linecap="round" stroke-linejoin="round"/>
<path d="M259.539 371.421C260.858 373.449 261.67 375.752 261.909 378.145C261.909 381.235 262.438 385.373 261.124 384.087C259.81 382.8 259.268 378.397 259.268 378.397L259.539 371.421Z" fill="white" stroke="#263238" stroke-linecap="round" stroke-linejoin="round"/>
<path d="M251.628 367.814C251.628 367.814 256.569 365.186 258.768 368.345C260.967 371.505 260.382 377.81 258.768 380.927C257.154 384.045 255.312 381.067 255.541 378.299C255.769 375.531 251.628 367.814 251.628 367.814Z" fill="white" stroke="#263238" stroke-linecap="round" stroke-linejoin="round"/>
<path d="M249.771 364.459C249.771 364.459 254.727 361.83 256.911 364.99C259.096 368.149 258.511 374.44 256.911 377.572C255.312 380.703 253.456 377.712 253.684 374.944C253.913 372.176 249.771 364.459 249.771 364.459Z" fill="white" stroke="#263238" stroke-linecap="round" stroke-linejoin="round"/>
<path d="M247.501 360.838C247.501 360.838 252.456 358.21 254.641 361.369C256.826 364.529 256.255 370.833 254.641 373.951C253.027 377.069 251.185 374.091 251.414 371.323C251.642 368.555 247.501 360.838 247.501 360.838Z" fill="white" stroke="#263238" stroke-linecap="round" stroke-linejoin="round"/>
<path d="M234.963 234.319C235.045 239.343 233.722 244.294 231.136 248.634C223.825 259.581 216.956 258.308 214 267.158C211.044 276.007 206.632 285.192 211.344 290.309C216.056 295.425 219.912 292.406 219.912 292.406C219.912 292.406 222.925 299.983 215.185 307.56C207.446 315.137 194.122 312.187 190.681 310.929C188.514 310.112 186.486 308.976 184.669 307.56C184.669 307.56 182.513 313.46 171.817 313.46C161.121 313.46 148.969 306.302 148.969 293.244C148.969 280.187 156.266 271.366 157.994 266.305C159.722 261.244 154.981 245.685 162.278 236.01C169.575 226.336 180.842 219.234 189.41 219.234C197.978 219.234 214.7 223.834 214.771 223.862C215.899 224.463 223.125 221.583 225.081 221.709C232.264 222.1 234.877 227.874 234.963 234.319Z" fill="#263238" stroke="#263238" stroke-linecap="round" stroke-linejoin="round"/>
<path d="M207.06 294.195C208.619 294.399 210.199 294.399 211.758 294.195" stroke="#919191" stroke-linecap="round" stroke-linejoin="round"/>
<path d="M228.766 241.658C228.087 245.406 226.676 248.99 224.61 252.213C217.927 262.488 210.33 266.193 201.234 275.979C195.393 282.312 196.493 288.631 201.234 291.944" stroke="#919191" stroke-linecap="round" stroke-linejoin="round"/>
<path d="M228.894 230.74C229.172 232.281 229.311 233.844 229.308 235.409" stroke="#919191" stroke-linecap="round" stroke-linejoin="round"/>
<path d="M219.912 240.54C219.912 240.54 218.484 255.009 212.286 263.411C206.089 271.813 193.722 275.993 194.165 284.884" stroke="#919191" stroke-linecap="round" stroke-linejoin="round"/>
<path d="M277.46 482.743C277.46 482.743 286.371 527.563 293.997 549.344C301.622 571.125 309.248 591.046 311.133 592.92C313.018 594.793 318.13 601.629 318.13 601.629C315.767 603.477 312.88 604.565 309.862 604.747C305.406 604.747 299.694 599.155 294.596 596.023C289.498 592.892 288.884 591.046 278.703 587.314C268.521 583.581 276.804 573.627 279.345 568.637C280.815 565.943 281.682 562.974 281.887 559.927C277.846 545.909 270.682 532.941 260.91 521.957C245.045 504.538 241.86 464.136 241.86 464.136L272.377 452.952L277.46 482.743Z" fill="white" stroke="#263238" stroke-linecap="round" stroke-linejoin="round"/>
<path d="M309.876 590.683L308.034 591.046C308.034 591.046 297.224 576.731 288.97 571.754C286.156 569.853 282.847 568.776 279.431 568.651C276.875 573.627 268.621 583.581 278.788 587.314C288.956 591.046 289.598 592.906 294.682 596.023C299.766 599.141 305.492 604.747 309.947 604.747C312.965 604.565 315.853 603.477 318.216 601.629C318.216 601.629 313.118 594.779 311.218 592.92C310.677 592.232 310.226 591.48 309.876 590.683Z" fill="#FF5733" stroke="#263238" stroke-linecap="round" stroke-linejoin="round"/>
<path d="M304.749 602.971C299.723 599.574 295.182 592.025 286.999 587.314C279.56 583.036 275.732 582.868 274.147 583.19C274.536 584.188 275.16 585.082 275.969 585.799C276.778 586.516 277.749 587.035 278.803 587.314C288.984 591.046 289.613 592.906 294.696 596.023C297.909 598.036 301.451 601.14 304.749 602.971Z" fill="#FF5733" stroke="#263238" stroke-linecap="round" stroke-linejoin="round"/>
<path d="M309.876 604.747C309.55 604.735 309.226 604.702 308.905 604.649C309.225 604.709 309.55 604.741 309.876 604.747Z" fill="#FF5733" stroke="#263238" stroke-linecap="round" stroke-linejoin="round"/>
<path d="M220.797 415.206C220.797 415.206 251.357 404.609 254.213 411.599C257.069 418.589 270.149 444.662 265.379 455.371C260.61 466.079 227.081 424.615 222.311 423.72C217.541 422.825 220.24 418.338 220.797 415.206Z" fill="white" stroke="#263238" stroke-linecap="round" stroke-linejoin="round"/>
<path d="M250.742 428.864C250.742 428.864 285.486 426.068 292.154 432.136C298.823 438.203 275.975 510.885 263.594 533.714C244.188 569.419 250.057 578.772 250.057 578.772C250.057 578.772 251.485 584.364 261.01 593.227C270.535 602.091 273.391 603.475 270.049 604.873C266.708 606.271 252.442 604.873 251.014 603.936C249.586 602.999 239.119 594.625 229.594 591.829C220.069 589.033 221.497 587.16 225.781 578.772C230.065 570.384 229.594 577.374 234.349 562.933C240.049 545.136 244.552 526.993 247.829 508.62C250.357 493.648 254.213 477.207 253.127 461.983L250.742 428.864Z" fill="white" stroke="#263238" stroke-linecap="round" stroke-linejoin="round"/>
<path d="M276.189 451.624C272.551 443.031 266.293 435.747 258.268 430.766C243.074 421.273 230.194 412.41 230.194 412.41L205.118 422.881C205.118 422.881 211.23 433.031 179.814 438.161C155.623 442.104 133.418 436.386 121.437 429.494C119.766 437.616 118.024 446.647 117.153 453.26C115.482 467.002 130.191 480.744 139.216 485.008C148.241 489.272 220.954 498.093 240.532 485.777C276.189 463.451 276.189 451.624 276.189 451.624Z" fill="#263238" stroke="#263238" stroke-linecap="round" stroke-linejoin="round"/>
<path d="M202.276 430.584C198.92 433.282 192.38 436.176 179.814 438.175C155.623 442.118 133.418 436.4 121.437 429.508C121.009 431.591 120.58 433.702 120.152 435.868C128.363 440.706 145.613 448.898 165.063 446.563C188.268 443.781 198.578 437.574 202.276 430.584Z" fill="#FF5733" stroke="#263238" stroke-linecap="round" stroke-linejoin="round"/>
<path d="M183.741 460.529C182.627 461.927 181.47 463.325 180.299 464.723" stroke="white" stroke-linecap="round" stroke-linejoin="round"/>
<path d="M201.234 433.995C196.839 441.906 191.936 449.536 186.554 456.838" stroke="white" stroke-linecap="round" stroke-linejoin="round"/>
<path d="M190.766 442.844C190.766 442.844 182.198 454.028 173.159 460.557" stroke="white" stroke-linecap="round" stroke-linejoin="round"/>
<path d="M261.01 593.199C251.485 584.364 250.057 578.772 250.057 578.772C249.738 578.482 249.485 578.13 249.314 577.738C248.672 578.395 246.73 579.639 241.975 577.849C237.848 576.298 233.935 573.655 229.808 571.88C228.823 573.599 227.866 574.676 225.781 578.772C221.497 587.16 220.069 589.033 229.594 591.829C239.119 594.625 249.586 603.013 251.014 603.936C252.442 604.859 266.722 606.271 270.049 604.873C273.376 603.475 270.535 602.049 261.01 593.199Z" fill="#FF5733" stroke="#263238" stroke-linecap="round" stroke-linejoin="round"/>
<path d="M269.778 456.363L285.971 446.577" stroke="#263238" stroke-linecap="round" stroke-linejoin="round"/>
<path d="M76.3266 367.758C76.3266 367.758 127.906 361.439 160.864 370.554L165.876 493.312H88.536C88.536 493.312 93.5197 427.369 76.3266 367.758Z" fill="#919191" stroke="#263238" stroke-linecap="round" stroke-linejoin="round"/>
<path d="M160.864 370.554C127.906 361.439 76.3266 367.758 76.3266 367.758C81.8463 387.625 85.5122 407.943 87.2794 428.459C116.08 442.538 142.459 460.934 165.462 482.981L160.864 370.554Z" fill="#757575" stroke="#263238" stroke-linecap="round" stroke-linejoin="round"/>
<path d="M258.125 608.13C257.542 608.132 256.972 607.959 256.492 607.634C256.012 607.309 255.645 606.848 255.441 606.313C244.017 576.172 241.161 497.926 240.989 494.612C240.963 493.871 241.238 493.149 241.755 492.607C242.272 492.064 242.988 491.745 243.745 491.719C244.503 491.693 245.24 491.962 245.794 492.468C246.348 492.974 246.675 493.675 246.701 494.417C246.701 495.228 249.672 575.067 260.796 604.355C261.059 605.051 261.029 605.82 260.713 606.493C260.397 607.167 259.821 607.69 259.111 607.948C258.797 608.07 258.463 608.132 258.125 608.13Z" fill="white" stroke="#263238" stroke-linecap="round" stroke-linejoin="round"/>
<path d="M195.936 608.13C195.355 608.129 194.788 607.955 194.311 607.63C193.833 607.305 193.469 606.846 193.265 606.313C181.841 576.172 178.985 497.926 178.8 494.612C178.773 493.871 179.049 493.149 179.566 492.607C180.083 492.064 180.798 491.745 181.556 491.719C182.313 491.693 183.05 491.962 183.605 492.468C184.159 492.974 184.485 493.675 184.512 494.417C184.512 495.228 187.482 575.067 198.62 604.355C198.884 605.051 198.854 605.82 198.538 606.493C198.222 607.167 197.645 607.69 196.935 607.948C196.617 608.07 196.278 608.132 195.936 608.13Z" fill="white" stroke="#263238" stroke-linecap="round" stroke-linejoin="round"/>
<path d="M257.354 493.256H87.1794V487.664H251.671C253.186 487.664 254.638 488.254 255.71 489.302C256.781 490.351 257.383 491.773 257.383 493.256H257.354Z" fill="#919191" stroke="#263238" stroke-linecap="round" stroke-linejoin="round"/>
<path d="M257.34 491.9H87.1794V497.45H257.34V491.9Z" fill="white" stroke="#263238" stroke-linecap="round" stroke-linejoin="round"/>
<path d="M159.593 608.13C159.163 608.139 158.737 608.053 158.346 607.878C157.955 607.703 157.609 607.444 157.335 607.12C157.06 606.796 156.864 606.416 156.76 606.007C156.657 605.599 156.649 605.173 156.737 604.761C172.888 529.856 158.165 372.343 157.965 370.764C157.931 370.396 157.97 370.026 158.082 369.674C158.193 369.322 158.374 368.994 158.615 368.711C158.856 368.427 159.151 368.193 159.484 368.021C159.818 367.849 160.182 367.743 160.557 367.709C161.315 367.64 162.069 367.869 162.654 368.345C163.239 368.821 163.607 369.505 163.677 370.246C163.834 371.84 178.671 530.178 162.349 605.907C162.216 606.529 161.871 607.088 161.37 607.492C160.869 607.896 160.242 608.121 159.593 608.13Z" fill="white" stroke="#263238" stroke-linecap="round" stroke-linejoin="round"/>
<path d="M71.0573 606.089C70.7911 606.092 70.5261 606.054 70.2719 605.977C69.5459 605.775 68.9311 605.3 68.5618 604.656C68.1926 604.011 68.0989 603.25 68.3012 602.538C105.429 473.503 73.9133 369.603 73.5991 368.569C73.4191 367.873 73.5194 367.136 73.879 366.511C74.2387 365.885 74.8303 365.419 75.5313 365.209C76.2323 364.999 76.989 365.061 77.6448 365.381C78.3006 365.702 78.8051 366.258 79.0541 366.933C79.3825 367.982 111.441 473.363 73.799 604.048C73.6312 604.634 73.2726 605.15 72.7778 605.519C72.283 605.887 71.6789 606.087 71.0573 606.089Z" fill="white" stroke="#263238" stroke-linecap="round" stroke-linejoin="round"/>
<path d="M593.163 375.573C593.163 375.573 575.612 366.024 574.313 387.665C573.014 409.306 569.772 549.959 569.772 549.959" stroke="#263238" stroke-width="2" stroke-linecap="round" stroke-linejoin="round"/>
<path d="M565.202 389.567C565.202 389.567 579.482 420.756 573.014 548.058" stroke="#263238" stroke-width="2" stroke-linecap="round" stroke-linejoin="round"/>
<path d="M579.268 379.934C579.268 379.934 572.542 384.128 568.73 379.319C564.917 374.51 571.314 365.675 565.674 361.9C560.033 358.126 550.28 363.885 550.28 363.885C550.28 363.885 557.777 366.038 557.534 370.051C557.291 374.063 553.678 375.573 553.25 373.825C552.822 372.078 549.18 363.242 543.097 366.919C541.339 367.933 539.81 369.286 538.602 370.896C537.394 372.507 536.533 374.34 536.071 376.286C536.071 376.286 550.251 374.804 551.108 380.018C551.965 385.233 545.296 379.11 539.441 378.774C533.586 378.439 528.246 379.277 528.631 382.744C528.761 385.812 528.575 388.885 528.074 391.915C531.28 389.309 535.332 387.911 539.498 387.973C545.939 388.35 545.696 392.363 539.841 392.027C533.986 391.692 528.96 397.144 528.96 397.144C528.96 397.144 534.3 406.077 541.083 410.495C547.866 414.912 550.308 413.291 551.079 409.922C551.851 406.552 550.051 397.787 554.15 398.025C558.248 398.262 547.367 413.151 552.593 414.032C557.82 414.912 562.032 413.431 563.403 410.061L564.831 406.692C564.831 406.692 563.003 397.955 563.803 394.558C564.603 391.16 565.559 394.655 566.488 398.752C567.416 402.848 568.001 412.634 569.786 412.158C571.571 411.683 577.298 404.553 578.64 401.743C579.982 398.933 571.1 390.391 571.2 388.672C571.3 386.952 578.154 390.224 579.225 392.013C580.003 393.372 580.704 394.772 581.324 396.207C581.324 396.207 585.608 393.579 585.494 385.526C585.38 377.474 579.268 379.934 579.268 379.934Z" fill="#FF5733"/>
<path opacity="0.3" d="M579.268 379.934C579.268 379.934 572.542 384.128 568.73 379.319C564.917 374.51 571.314 365.675 565.674 361.9C560.033 358.126 550.28 363.885 550.28 363.885C550.28 363.885 557.777 366.038 557.534 370.051C557.291 374.063 553.678 375.573 553.25 373.825C552.822 372.078 549.18 363.242 543.097 366.919C541.339 367.933 539.81 369.286 538.602 370.896C537.394 372.507 536.533 374.34 536.071 376.286C536.071 376.286 550.251 374.804 551.108 380.018C551.965 385.233 545.296 379.11 539.441 378.774C533.586 378.439 528.246 379.277 528.631 382.744C528.761 385.812 528.575 388.885 528.074 391.915C531.28 389.309 535.332 387.911 539.498 387.973C545.939 388.35 545.696 392.363 539.841 392.027C533.986 391.692 528.96 397.144 528.96 397.144C528.96 397.144 534.3 406.077 541.083 410.495C547.866 414.912 550.308 413.291 551.079 409.922C551.851 406.552 550.051 397.787 554.15 398.025C558.248 398.262 547.367 413.151 552.593 414.032C557.82 414.912 562.032 413.431 563.403 410.061L564.831 406.692C564.831 406.692 563.003 397.955 563.803 394.558C564.603 391.16 565.559 394.655 566.488 398.752C567.416 402.848 568.001 412.634 569.786 412.158C571.571 411.683 577.298 404.553 578.64 401.743C579.982 398.933 571.1 390.391 571.2 388.672C571.3 386.952 578.154 390.224 579.225 392.013C580.003 393.372 580.704 394.772 581.324 396.207C581.324 396.207 585.608 393.579 585.494 385.526C585.38 377.474 579.268 379.934 579.268 379.934Z" fill="#263238"/>
<path d="M545.225 398.821C549.609 393.523 556.049 386.351 561.461 382.926" stroke="#263238" stroke-linecap="round" stroke-linejoin="round"/>
<path d="M540.155 405.266C540.155 405.266 541.269 403.742 543.097 401.45" stroke="#263238" stroke-linecap="round" stroke-linejoin="round"/>
<path d="M564.317 384.24C564.317 384.24 570.829 393.243 572.028 402.512" stroke="#263238" stroke-linecap="round" stroke-linejoin="round"/>
<path d="M556.92 389.567C556.92 389.567 558.748 388.518 558.062 399.982" stroke="#263238" stroke-linecap="round" stroke-linejoin="round"/>
<path d="M561.704 378.858C561.704 378.858 565.431 375.629 563.46 369.184" stroke="#263238" stroke-linecap="round" stroke-linejoin="round"/>
<path d="M556.677 384.38L554.021 379.627" stroke="#263238" stroke-linecap="round" stroke-linejoin="round"/>
<path d="M551.094 389.231C551.094 389.231 542.668 382.996 537.399 382.688" stroke="#263238" stroke-linecap="round" stroke-linejoin="round"/>
<path d="M603.202 362.949C603.202 362.949 602.93 372.399 595.39 372.861C587.851 373.322 583.195 361.019 575.484 363.983C567.773 366.947 567.03 380.424 567.03 380.424C567.03 380.424 574.342 374.538 578.283 377.502C582.224 380.466 581.31 385.051 579.183 384.324C577.055 383.597 565.602 381.095 565.202 389.567C565.042 391.982 565.384 394.404 566.206 396.686C567.028 398.969 568.314 401.065 569.986 402.848C569.986 402.848 578.14 387.931 584.081 390.643C590.021 393.355 579.183 395.732 574.841 401.24C570.5 406.748 567.701 412.55 571.543 414.549C574.769 416.504 577.783 418.776 580.539 421.329C580.539 421.329 579.511 413.528 584.281 407.475C589.05 401.422 592.977 404.385 588.65 409.894C584.323 415.402 586.465 424.055 586.465 424.055C586.465 424.055 599.232 424.908 608.371 421.259C617.51 417.611 617.567 414.143 614.626 411.054C611.684 407.964 601.516 403.798 604.544 399.87C607.571 395.942 615.397 416.828 619.866 412.298C624.336 407.769 625.678 402.638 623.165 398.989L620.652 395.354C620.652 395.354 610.484 391.16 607.543 388.085C604.601 385.009 608.842 386.435 613.654 388.308C618.467 390.182 628.877 396.291 629.62 394.208C630.362 392.125 626.949 381.626 625.007 378.439C623.065 375.251 608.242 378.089 606.557 376.817C604.872 375.545 612.883 371.057 615.439 371.225C617.356 371.381 619.263 371.637 621.151 371.994C621.151 371.994 621.38 366.01 613.069 360.628C604.758 355.246 603.202 362.949 603.202 362.949Z" fill="#FF5733"/>
<path opacity="0.2" d="M603.202 362.949C603.202 362.949 602.93 372.399 595.39 372.861C587.851 373.322 583.195 361.019 575.484 363.983C567.773 366.947 567.03 380.424 567.03 380.424C567.03 380.424 574.342 374.538 578.283 377.502C582.224 380.466 581.31 385.051 579.183 384.324C577.055 383.597 565.602 381.095 565.202 389.567C565.042 391.982 565.384 394.404 566.206 396.686C567.028 398.969 568.314 401.065 569.986 402.848C569.986 402.848 578.14 387.931 584.081 390.643C590.021 393.355 579.183 395.732 574.841 401.24C570.5 406.748 567.701 412.55 571.543 414.549C574.769 416.504 577.783 418.776 580.539 421.329C580.539 421.329 579.511 413.528 584.281 407.475C589.05 401.422 592.977 404.385 588.65 409.894C584.323 415.402 586.465 424.055 586.465 424.055C586.465 424.055 599.232 424.908 608.371 421.259C617.51 417.611 617.567 414.143 614.626 411.054C611.684 407.964 601.516 403.798 604.544 399.87C607.571 395.942 615.397 416.828 619.866 412.298C624.336 407.769 625.678 402.638 623.165 398.989L620.652 395.354C620.652 395.354 610.484 391.16 607.543 388.085C604.601 385.009 608.842 386.435 613.654 388.308C618.467 390.182 628.877 396.291 629.62 394.208C630.362 392.125 626.949 381.626 625.007 378.439C623.065 375.251 608.242 378.089 606.557 376.817C604.872 375.545 612.883 371.057 615.439 371.225C617.356 371.381 619.263 371.637 621.151 371.994C621.151 371.994 621.38 366.01 613.069 360.628C604.758 355.246 603.202 362.949 603.202 362.949Z" fill="#263238"/>
<path d="M599.317 409.181C596.904 401.226 593.934 390.042 594.134 382.437" stroke="#263238" stroke-linecap="round" stroke-linejoin="round"/>
<path d="M602.445 418.561C602.445 418.561 601.645 416.408 600.545 413.067" stroke="#263238" stroke-linecap="round" stroke-linejoin="round"/>
<path d="M597.418 380.536C597.418 380.536 611.055 380.284 621.351 385.429" stroke="#263238" stroke-linecap="round" stroke-linejoin="round"/>
<path d="M597.846 391.44C597.846 391.44 598.018 388.938 609.27 397.423" stroke="#263238" stroke-linecap="round" stroke-linejoin="round"/>
<path d="M590.192 379.459C590.192 379.459 589.421 373.616 581.496 371.155" stroke="#263238" stroke-linecap="round" stroke-linejoin="round"/>
<path d="M592.349 388.113L585.68 387.47" stroke="#263238" stroke-linecap="round" stroke-linejoin="round"/>
<path d="M593.505 396.892C593.505 396.892 581.382 400.904 577.483 405.867" stroke="#263238" stroke-linecap="round" stroke-linejoin="round"/>
<path d="M522.305 425.859C522.305 425.859 560.661 450.673 560.019 546.786" stroke="#263238" stroke-width="2" stroke-linecap="round" stroke-linejoin="round"/>
<path d="M569.601 419.302C569.601 419.302 568.373 430.179 559.605 430.011C550.837 429.843 546.753 415.22 537.499 417.932C528.246 420.644 526.147 436.106 526.147 436.106C526.147 436.106 535.172 429.983 539.427 433.785C543.682 437.588 542.183 442.775 539.798 441.74C537.414 440.706 524.433 436.749 523.162 446.493C522.749 449.267 522.916 452.093 523.652 454.802C524.388 457.51 525.679 460.043 527.446 462.249C527.446 462.249 538.299 445.794 544.882 449.485C551.465 453.176 538.742 454.895 533.201 460.851C527.66 466.806 523.905 473.237 528.103 475.893C531.643 478.45 534.906 481.354 537.842 484.561C537.842 484.561 537.399 475.474 543.482 468.917C549.566 462.361 553.835 466.121 548.295 472.119C542.754 478.116 544.411 488.252 544.411 488.252C544.411 488.252 559.076 490.418 569.972 487.063C580.868 483.708 581.253 479.71 578.154 475.879C575.056 472.049 563.732 466.289 567.601 462.123C571.471 457.957 578.483 482.701 584.081 477.878C589.678 473.055 591.706 467.282 589.164 462.836L586.622 458.39C586.622 458.39 575.298 452.644 572.2 448.8C569.101 444.955 573.856 447.024 579.225 449.625C584.595 452.225 596.033 460.236 597.075 457.915C598.118 455.594 595.205 443.18 593.277 439.28C591.349 435.379 573.97 437.322 572.142 435.701C570.315 434.079 580.011 429.647 582.938 430.109C585.118 430.464 587.277 430.931 589.407 431.507C589.407 431.507 590.235 424.629 581.167 417.639C572.1 410.649 569.601 419.302 569.601 419.302Z" fill="#FF5733"/>
<path opacity="0.3" d="M569.601 419.302C569.601 419.302 568.373 430.179 559.605 430.011C550.837 429.843 546.753 415.22 537.499 417.932C528.246 420.644 526.147 436.106 526.147 436.106C526.147 436.106 535.172 429.983 539.427 433.785C543.682 437.588 542.183 442.775 539.798 441.74C537.414 440.706 524.433 436.749 523.162 446.493C522.749 449.267 522.916 452.093 523.652 454.802C524.388 457.51 525.679 460.043 527.446 462.249C527.446 462.249 538.299 445.794 544.882 449.485C551.465 453.176 538.742 454.895 533.201 460.851C527.66 466.806 523.905 473.237 528.103 475.893C531.643 478.45 534.906 481.354 537.842 484.561C537.842 484.561 537.399 475.474 543.482 468.917C549.566 462.361 553.835 466.121 548.295 472.119C542.754 478.116 544.411 488.252 544.411 488.252C544.411 488.252 559.076 490.418 569.972 487.063C580.868 483.708 581.253 479.71 578.154 475.879C575.056 472.049 563.732 466.289 567.601 462.123C571.471 457.957 578.483 482.701 584.081 477.878C589.678 473.055 591.706 467.282 589.164 462.836L586.622 458.39C586.622 458.39 575.298 452.644 572.2 448.8C569.101 444.955 573.856 447.024 579.225 449.625C584.595 452.225 596.033 460.236 597.075 457.915C598.118 455.594 595.205 443.18 593.277 439.28C591.349 435.379 573.97 437.322 572.142 435.701C570.315 434.079 580.011 429.647 582.938 430.109C585.118 430.464 587.277 430.931 589.407 431.507C589.407 431.507 590.235 424.629 581.167 417.639C572.1 410.649 569.601 419.302 569.601 419.302Z" fill="#263238"/>
<path d="M560.661 472.286C558.605 462.948 556.306 449.737 557.248 440.943" stroke="#263238" stroke-linecap="round" stroke-linejoin="round"/>
<path d="M563.374 483.4C563.374 483.4 562.66 480.842 561.704 476.886" stroke="#263238" stroke-linecap="round" stroke-linejoin="round"/>
<path d="M561.204 439.056C561.204 439.056 576.912 440.035 588.336 446.913" stroke="#263238" stroke-linecap="round" stroke-linejoin="round"/>
<path d="M560.676 451.554C560.676 451.554 561.118 448.688 573.285 459.523" stroke="#263238" stroke-linecap="round" stroke-linejoin="round"/>
<path d="M552.993 437.155C552.993 437.155 552.665 430.332 543.768 426.753" stroke="#263238" stroke-linecap="round" stroke-linejoin="round"/>
<path d="M554.649 447.332L547.024 445.976" stroke="#263238" stroke-linecap="round" stroke-linejoin="round"/>
<path d="M555.149 457.565C555.149 457.565 540.769 461.088 535.786 466.443" stroke="#263238" stroke-linecap="round" stroke-linejoin="round"/>
<path d="M537.256 501.588C537.256 501.588 561.961 520.042 564.56 547.415L559.362 455.748" stroke="#263238" stroke-width="2" stroke-linecap="round" stroke-linejoin="round"/>
<path d="M597.061 488.224C564.56 482.492 564.56 547.415 564.56 547.415" stroke="#263238" stroke-width="2" stroke-linecap="round" stroke-linejoin="round"/>
<path d="M568.458 546.786C568.458 546.786 549.609 412.494 604.158 412.494" stroke="#263238" stroke-width="2" stroke-linecap="round" stroke-linejoin="round"/>
<path d="M584.68 484.365C580.239 479.472 570.8 479.472 565.259 491.97C559.719 504.468 564.703 502.301 564.703 502.301C564.703 502.301 575.241 499.03 581.91 496.863C588.579 494.696 597.447 489.258 598.003 492.515C598.56 495.773 593.562 499.03 587.451 500.121C581.339 501.211 565.259 505.559 566.916 508.872C568.572 512.185 572.471 521.915 572.471 521.915C577.211 517.972 582.216 514.343 587.451 511.053C594.676 506.705 599.117 508.327 595.233 513.22C591.349 518.113 580.239 523.537 582.467 530.066C584.695 536.594 598.003 544.731 598.003 544.731C598.003 544.731 599.674 531.156 603.558 526.808C607.443 522.461 607.443 527.354 606.329 534.959C605.772 538.198 605.4 541.465 605.215 544.745L620.752 550.183C623.292 546.396 626.073 542.768 629.077 539.32L631.933 536.524C631.933 536.524 619.723 526.207 619.166 519.748C618.61 513.29 627.492 519.748 630.262 520.839C633.032 521.929 637.473 529.534 637.473 529.534C637.473 529.534 640.258 517.036 640.815 512.689L641.372 508.341C641.372 508.341 629.705 503.993 625.264 503.993C620.823 503.993 618.61 507.25 618.61 502.917C618.61 498.583 623.051 495.843 628.049 496.388C632.57 497.128 637.025 498.217 641.372 499.645C641.372 499.645 644.699 496.933 643.585 488.783C642.471 480.632 639.701 480.632 633.047 482.799C626.392 484.966 621.937 489.873 616.939 489.873C611.941 489.873 614.725 483.89 618.053 482.268C621.38 480.646 629.705 477.375 631.376 476.83C633.047 476.285 622.494 468.679 616.939 467.589C611.384 466.499 604.201 470.385 604.729 475.739C605.772 487.077 589.121 489.3 584.68 484.365Z" fill="#FF5733"/>
<path d="M620.409 540.313C620.58 541.944 620.694 543.58 620.751 545.22" stroke="#263238" stroke-linecap="round" stroke-linejoin="round"/>
<path d="M609.256 501.309C614.148 512.067 617.673 523.373 619.752 534.973" stroke="#263238" stroke-linecap="round" stroke-linejoin="round"/>
<path d="M607.257 496.947C604.515 491.159 602.445 487.622 602.445 487.622C605.474 486.226 607.991 483.951 609.656 481.108C610.955 478.532 612.858 476.295 615.211 474.579" stroke="#263238" stroke-linecap="round" stroke-linejoin="round"/>
<path d="M583.024 506.076C583.024 506.076 603.016 497.926 603.016 499.547" stroke="#263238" stroke-linecap="round" stroke-linejoin="round"/>
<path d="M614.04 495.773C614.04 495.773 622.922 491.425 630.69 491.425" stroke="#263238" stroke-linecap="round" stroke-linejoin="round"/>
<path d="M610.77 508.872C606.918 511.972 603.383 515.432 600.217 519.203C596.979 522.943 594.358 527.155 592.449 531.687" stroke="#263238" stroke-linecap="round" stroke-linejoin="round"/>
<path d="M616.896 510.997C616.896 510.997 628.563 507.726 634.66 513.164" stroke="#263238" stroke-linecap="round" stroke-linejoin="round"/>
<path d="M637.988 437.574C631.947 434.079 625.264 433.995 621.98 430.304C618.695 426.614 625.136 424.712 628.577 426.11C632.018 427.508 640.001 431.521 641.5 432.387C643 433.254 641.972 420.49 639.173 415.611C636.374 410.732 628.706 407.992 624.893 411.935C616.825 420.225 604.23 409.348 605.086 402.862C605.943 396.375 599.76 389.399 586.522 393.481C573.285 397.563 578.197 399.842 578.197 399.842C578.197 399.842 587.622 405.504 593.677 408.999C599.731 412.494 609.727 415.5 607.571 418.044C605.415 420.588 599.631 419.037 594.791 415.248C589.95 411.459 576.055 402.4 574.627 405.77C573.199 409.139 568.201 418.421 568.201 418.421C574.353 419.344 580.435 420.666 586.408 422.378C594.491 424.866 596.147 429.214 589.835 429.55C583.524 429.885 572.042 425.244 568.415 431.157C564.788 437.071 567.287 452.253 567.287 452.253C567.287 452.253 578.854 444.592 584.752 444.606C590.649 444.62 586.879 447.835 580.282 452.001C577.421 453.711 574.66 455.578 572.014 457.593L578.012 472.65C582.599 472.042 587.22 471.715 591.849 471.671L595.762 471.951C595.762 471.951 595.762 456.153 600.388 451.47C605.015 446.787 605.843 457.621 606.829 460.389C607.814 463.157 604.858 471.42 604.858 471.42C604.858 471.42 616.282 465.282 620.023 462.836L623.75 460.403C623.75 460.403 619.466 448.926 616.539 445.654C613.612 442.383 609.67 442.858 613.012 440.062C616.353 437.266 621.38 438.664 624.236 442.775C626.63 446.599 628.707 450.606 630.448 454.755C630.448 454.755 634.732 455.44 640.287 449.275C645.842 443.11 644.028 441.069 637.988 437.574ZM585.48 454.965C581.039 452.784 591.578 448.436 591.578 448.436C595.476 447.905 589.907 457.146 585.48 454.965ZM592.948 434.68C591.063 433.757 596.733 431.884 596.733 431.884C604.929 433.38 594.833 435.603 592.934 434.68H592.948Z" fill="#FF5733"/>
<path d="M585.337 466.037C584.195 467.226 582.995 468.386 581.781 469.504" stroke="#263238" stroke-linecap="round" stroke-linejoin="round"/>
<path d="M608.114 432.22C603.013 442.881 596.591 452.886 588.993 462.011" stroke="#263238" stroke-linecap="round" stroke-linejoin="round"/>
<path d="M610.17 427.886C612.841 422.056 614.197 418.212 614.197 418.212C617.267 419.53 620.674 419.901 623.965 419.274C626.798 418.541 629.769 418.479 632.633 419.092" stroke="#263238" stroke-linecap="round" stroke-linejoin="round"/>
<path d="M605.343 426.46C606.6 425.383 587.222 415.961 587.222 415.961" stroke="#263238" stroke-linecap="round" stroke-linejoin="round"/>
<path d="M615.554 432.164C615.554 432.164 624.736 435.882 629.834 441.628" stroke="#263238" stroke-linecap="round" stroke-linejoin="round"/>
<path d="M603.316 438.259C598.402 437.443 593.418 437.096 588.436 437.224C583.424 437.286 578.452 438.111 573.699 439.671" stroke="#263238" stroke-linecap="round" stroke-linejoin="round"/>
<path d="M605.643 444.201C605.643 444.201 615.796 450.673 615.639 458.754" stroke="#263238" stroke-linecap="round" stroke-linejoin="round"/>
<path d="M551.736 512.856C546.881 510.06 541.498 509.99 538.884 507.013C536.271 504.035 541.412 502.539 544.182 503.657C546.952 504.776 553.378 508.019 554.592 508.718C555.806 509.417 554.964 499.128 552.707 495.255C550.451 491.383 544.282 489.132 541.212 492.292C534.715 498.974 524.576 490.209 525.275 484.994C525.975 479.78 520.991 474.16 510.296 477.445C499.6 480.73 503.598 482.562 503.598 482.562C503.598 482.562 511.181 487.119 516.051 489.929C520.92 492.739 528.974 495.172 527.232 497.213C525.49 499.254 520.849 498.023 516.95 494.962C513.052 491.9 501.871 484.617 500.728 487.329C499.586 490.041 495.559 497.506 495.559 497.506C500.509 498.254 505.403 499.319 510.21 500.694C516.707 502.693 518.035 506.188 512.952 506.453C507.868 506.719 498.672 502.986 495.816 507.754C492.96 512.521 494.902 524.739 494.902 524.739C494.902 524.739 504.212 518.56 508.953 518.574C513.694 518.588 510.667 521.174 505.369 524.53C503.066 525.906 500.844 527.409 498.715 529.031L503.527 541.138C507.22 540.653 510.94 540.396 514.665 540.369L517.821 540.579C517.821 540.579 517.821 527.871 521.548 524.096C525.275 520.322 525.932 529.045 526.718 531.282C527.503 533.519 525.133 540.159 525.133 540.159C525.133 540.159 534.358 535.21 537.342 533.253L540.341 531.282C540.341 531.282 536.885 522.055 534.543 519.413C532.201 516.771 529.003 517.176 531.687 514.883C534.372 512.591 538.413 513.793 540.712 517.05C542.64 520.131 544.316 523.357 545.724 526.696C545.724 526.696 549.166 527.242 553.636 522.293C558.105 517.344 556.606 515.68 551.736 512.856ZM509.467 526.836C505.897 525.089 514.38 521.594 514.38 521.594C517.507 521.174 513.037 528.612 509.467 526.85V526.836ZM515.508 510.536C513.98 509.781 518.55 508.299 518.55 508.299C525.133 509.543 517.007 511.277 515.508 510.536Z" fill="#FF5733"/>
<path d="M509.382 535.77C508.454 536.72 507.497 537.657 506.526 538.566" stroke="#263238" stroke-linecap="round" stroke-linejoin="round"/>
<path d="M527.703 508.55C523.602 517.13 518.436 525.183 512.323 532.526" stroke="#263238" stroke-linecap="round" stroke-linejoin="round"/>
<path d="M529.36 505.055C531.502 500.372 532.601 497.283 532.601 497.283C535.07 498.34 537.809 498.638 540.455 498.135C542.733 497.545 545.123 497.497 547.424 497.996" stroke="#263238" stroke-linecap="round" stroke-linejoin="round"/>
<path d="M510.881 495.465C510.881 495.465 526.489 503.056 525.475 503.853" stroke="#263238" stroke-linecap="round" stroke-linejoin="round"/>
<path d="M533.686 508.508C533.686 508.508 541.069 511.5 545.11 516.128" stroke="#263238" stroke-linecap="round" stroke-linejoin="round"/>
<path d="M523.833 513.415C519.881 512.76 515.873 512.484 511.867 512.591C507.834 512.628 503.833 513.294 500.014 514.562" stroke="#263238" stroke-linecap="round" stroke-linejoin="round"/>
<path d="M525.718 518.197C525.718 518.197 533.886 523.411 533.729 529.898" stroke="#263238" stroke-linecap="round" stroke-linejoin="round"/>
<path d="M531.916 423.133C531.916 423.133 525.804 427.48 521.92 423.133C518.036 418.785 523.59 410.089 518.036 406.832C512.481 403.575 503.613 409.544 503.613 409.544C503.613 409.544 510.824 411.18 510.824 414.982C510.824 418.785 507.497 420.421 506.94 418.785C506.383 417.149 502.499 408.999 496.944 412.815C495.344 413.87 493.978 415.232 492.93 416.818C491.882 418.403 491.173 420.181 490.846 422.042C490.846 422.042 504.155 419.875 505.269 424.768C506.383 429.661 499.729 424.223 494.174 424.223C488.619 424.223 483.621 425.314 484.178 428.571C484.48 431.462 484.48 434.375 484.178 437.266C487.053 434.631 490.796 433.089 494.731 432.919C500.828 432.919 500.828 436.721 495.287 436.721C489.747 436.721 485.291 442.159 485.291 442.159C485.291 442.159 490.846 450.31 497.501 454.112C504.155 457.915 506.383 456.279 506.94 453.022C507.497 449.765 505.269 441.614 509.153 441.614C513.038 441.614 503.613 456.279 508.596 456.824C513.58 457.37 517.479 455.734 518.592 452.477L519.706 449.219C519.706 449.219 517.479 441.069 518.036 437.812C518.592 434.554 519.706 437.812 520.806 441.614C521.905 445.417 523.034 454.644 524.704 454.112C526.375 453.581 531.359 446.493 532.473 443.781C533.586 441.069 524.704 433.464 524.704 431.828C524.704 430.193 531.359 432.919 532.473 434.54C533.586 436.162 534.686 438.343 534.686 438.343C534.686 438.343 538.57 435.631 538.013 428.026C537.456 420.421 531.916 423.133 531.916 423.133Z" fill="#FF5733"/>
<path d="M500.814 442.844C504.655 437.602 510.353 430.472 515.265 426.935" stroke="#263238" stroke-linecap="round" stroke-linejoin="round"/>
<path d="M496.387 449.219C496.387 449.219 497.372 447.71 498.958 445.445" stroke="#263238" stroke-linecap="round" stroke-linejoin="round"/>
<path d="M518.036 428.026C518.036 428.026 524.704 436.176 526.361 444.872" stroke="#263238" stroke-linecap="round" stroke-linejoin="round"/>
<path d="M511.381 433.464C511.381 433.464 513.037 432.373 513.037 443.25" stroke="#263238" stroke-linecap="round" stroke-linejoin="round"/>
<path d="M515.265 423.133C515.265 423.133 518.592 419.875 516.379 413.892" stroke="#263238" stroke-linecap="round" stroke-linejoin="round"/>
<path d="M510.824 428.571L508.054 424.223" stroke="#263238" stroke-linecap="round" stroke-linejoin="round"/>
<path d="M505.826 433.464C505.826 433.464 497.501 428.026 492.503 428.026" stroke="#263238" stroke-linecap="round" stroke-linejoin="round"/>
<path d="M587.965 544.87H545.053V605.334H587.965V544.87Z" fill="#263238" stroke="#263238" stroke-width="2" stroke-linecap="round" stroke-linejoin="round"/>
</svg>
